<svg width="1440" height="764" viewBox="0 0 1440 764" fill="none" xmlns="http://www.w3.org/2000/svg">
<path opacity="0.3" d="M225.54 586.416C225.576 586.436 225.612 586.446 225.636 586.467L299.976 624.28L224.376 764H237.528L289.56 667.858L310.308 629.516L498.324 725.138C498.372 725.158 498.408 725.179 498.456 725.199L574.74 764H598.008L506.124 717.274L400.236 522.77L638.016 332.309L682.776 764H694.776L649.092 323.437L846.072 165.656L908.7 274.643L808.092 522.953C808.08 522.973 808.08 522.994 808.068 523.014L710.436 764H723.072L813.24 541.442L889.14 764H901.584L821.532 529.279L1063.39 515.751L1019.64 594.962C1019.6 595.024 1019.57 595.075 1019.54 595.136L926.268 764H939.468L1026.36 606.718L1175.08 764H1190.4L1188.26 761.739L1440 562.752V548.888L1180.76 753.803L1032.01 596.491L1077.04 514.987L1440 494.685V484.519L1351.21 489.49L1440 399.287V383.457L1334.74 490.407L1193.54 498.301L1270.34 300.547L1440 360.455V349.464L1241.66 279.42L1029.11 204.355C1029.1 204.355 1029.08 204.345 1029.08 204.345L965.892 182.026L1347.11 0H1322.72L963.024 171.757L1032.61 0H1019.96L914.196 261.064L853.248 155L764.184 0H750.888L840.588 156.09L638.808 317.712C638.784 317.732 638.76 317.743 638.748 317.763L394.932 513.052L373.704 474.067L589.2 180.223L721.38 0H707.292L367.716 463.055L241.296 230.84L197.34 150.111L420.84 76.726C420.9 76.7056 420.948 76.6852 421.008 76.675L654.552 0H602.94L602.184 6.31573L424.104 64.777L418.176 0H406.188L411.696 60.1319L329.064 0H310.692L407.28 70.2982L192.3 140.882L155.904 74.0367L212.124 0H197.904L149.988 63.1166L115.608 0H102.444L143.652 75.6971C143.676 75.7379 143.7 75.7786 143.724 75.8194L183.816 149.459L228.36 231.278L0 369.083V381.531L233.46 240.65L287.892 340.622L224.76 574.182L61.824 491.323C61.752 491.293 61.692 491.252 61.62 491.221L0 459.887V471.714L52.8 498.566L63.9 764H75.864L65.016 504.78L225.54 586.416ZM1259.27 296.636L1184.18 489.958L1038.5 218.667L1259.27 296.636ZM920.808 275.947L955.848 189.472L989.364 201.309L1022.29 212.942L1176.06 499.269L1072.88 505.045C1072.79 505.045 1072.69 505.055 1072.6 505.065L822.324 519.062L920.808 275.947ZM296.088 355.678L361.512 475.85L387.516 523.605C387.552 523.676 387.6 523.758 387.636 523.829L487.908 708.014L310.728 617.913L235.536 579.672L296.088 355.678Z" fill="url(#paint0_linear_181_14854)"/>
<defs>
<linearGradient id="paint0_linear_181_14854" x1="720" y1="0" x2="720" y2="764" gradientUnits="userSpaceOnUse">
<stop stop-color="#AE8649"/>
<stop offset="1" stop-color="#AE8649" stop-opacity="0"/>
</linearGradient>
</defs>
</svg>
