<svg width="1440" height="443" viewBox="0 0 1440 443" fill="none" xmlns="http://www.w3.org/2000/svg">
<g opacity="0.8">
<path d="M0 146.21C0 146.21 171.55 52.5723 548.306 244.781C749.654 347.5 847.611 231.725 944.455 231.975C1090.37 232.34 1170.38 381.099 1439.96 212.141" stroke="#AE8649" stroke-opacity="0.5" stroke-width="0.5" stroke-miterlimit="10"/>
<path d="M0 162.855C0 162.855 182.206 44.7002 555.564 232.838C764.457 337.055 853.697 243.11 954.976 242.534C1102.26 242.074 1187.22 373.707 1439.96 215.309" stroke="#AE8649" stroke-opacity="0.5" stroke-width="0.5" stroke-miterlimit="10"/>
<path d="M0 179.502C0 179.502 192.228 38.1918 562.84 220.877C778.914 327.378 859.803 254.247 965.517 253.095C1114.14 251.482 1204.09 366.315 1440 218.477" stroke="#AE8649" stroke-opacity="0.5" stroke-width="0.5" stroke-miterlimit="10"/>
<path d="M0 196.129C0 196.129 202.672 30.7805 570.098 208.897C793.564 317.221 865.889 265.517 976.038 263.635C1126.03 261.081 1220.95 358.885 1440 221.607" stroke="#AE8649" stroke-opacity="0.5" stroke-width="0.5" stroke-miterlimit="10"/>
<path d="M0 212.775C0 212.775 213.175 23.2926 577.355 196.954C808.252 307.065 871.976 276.844 986.54 274.214C1137.89 270.758 1237.77 351.512 1439.98 224.794" stroke="#AE8649" stroke-opacity="0.5" stroke-width="0.5" stroke-miterlimit="10"/>
<path d="M0 229.421C0 229.421 223.735 15.6897 584.613 184.993C822.978 296.832 878.062 288.153 997.062 284.774C1149.76 280.435 1254.63 344.101 1439.98 227.943" stroke="#AE8649" stroke-opacity="0.5" stroke-width="0.5" stroke-miterlimit="10"/>
<path d="M0 246.048C0 246.048 234.352 7.95213 591.87 173.012C837.723 286.521 884.148 299.481 1007.58 295.315C1161.64 290.131 1271.48 336.69 1439.98 231.092" stroke="#AE8649" stroke-opacity="0.5" stroke-width="0.5" stroke-miterlimit="10"/>
<path d="M0 262.694C0 262.694 245.008 0.156971 599.128 161.07C852.488 276.192 890.235 310.847 1018.1 305.894C1173.53 299.884 1288.34 329.298 1439.98 234.259" stroke="#AE8649" stroke-opacity="0.5" stroke-width="0.5" stroke-miterlimit="10"/>
<path d="M0 279.34C0 279.34 255.721 -7.71497 606.405 149.109C867.31 265.785 896.34 322.213 1028.63 316.454C1185.39 309.618 1305.18 321.906 1439.98 237.427" stroke="#AE8649" stroke-opacity="0.5" stroke-width="0.5" stroke-miterlimit="10"/>
<path d="M0 295.968C0 295.968 266.454 -15.7015 613.662 137.128C882.132 255.303 902.426 333.58 1039.15 326.995C1197.28 319.372 1322.04 314.477 1439.98 240.558" stroke="#AE8649" stroke-opacity="0.5" stroke-width="0.5" stroke-miterlimit="10"/>
<path d="M0 312.614C0 312.614 277.225 -23.7465 620.92 125.186C896.993 244.8 908.513 345.004 1049.67 337.574C1209.16 329.183 1338.89 307.104 1439.98 243.744" stroke="#AE8649" stroke-opacity="0.5" stroke-width="0.5" stroke-miterlimit="10"/>
<path d="M0 329.26C0 329.26 288.015 -31.8491 628.177 113.224C911.873 234.202 914.618 356.427 1060.19 348.133C1221.05 338.975 1355.73 299.692 1439.98 246.893" stroke="#AE8649" stroke-opacity="0.5" stroke-width="0.5" stroke-miterlimit="10"/>
<path d="M0 345.887C0 345.887 298.825 -40.0277 635.435 101.263C926.772 223.546 920.704 367.871 1070.69 358.693C1232.91 348.786 1372.57 292.301 1439.96 250.061" stroke="#AE8649" stroke-opacity="0.5" stroke-width="0.5" stroke-miterlimit="10"/>
<path d="M0 362.533C0 362.533 309.653 -48.2649 642.692 89.3013C941.709 212.813 926.81 379.601 1081.21 369.253C1244.82 358.923 1389.43 284.889 1439.96 253.209" stroke="#AE8649" stroke-opacity="0.5" stroke-width="0.5" stroke-miterlimit="10"/>
<path d="M0 379.179C0 379.179 320.521 -56.54 649.969 77.3398C956.685 202.004 932.935 390.987 1091.76 379.813C1256.72 368.658 1406.29 277.497 1440 256.377" stroke="#AE8649" stroke-opacity="0.5" stroke-width="0.5" stroke-miterlimit="10"/>
<path d="M0 395.806C0 395.806 331.599 -65.4484 657.226 65.3787C971.891 190.599 939.021 402.353 1102.28 390.373C1268.58 378.392 1423.14 270.086 1440 259.526" stroke="#AE8649" stroke-opacity="0.5" stroke-width="0.5" stroke-miterlimit="10"/>
<path d="M0 412.453C0 412.453 342.274 -73.3007 664.484 53.4176C986.694 180.136 945.107 413.739 1112.78 400.933C1280.45 388.127 1439.98 262.695 1439.98 262.695" stroke="#AE8649" stroke-opacity="0.5" stroke-width="0.5" stroke-miterlimit="10"/>
</g>
<path d="M0 442.232C0 442.232 242.397 14.4036 530.835 1.44378C840.776 -12.476 937.85 305.299 1111.88 359.25C1308.31 420.152 1439.98 356.793 1439.98 356.793" stroke="#AE8649" stroke-opacity="0.5" stroke-miterlimit="10"/>
<path d="M0 53.4367C0 53.4367 130.405 -6.08253 275.67 25.9234C408.436 55.1647 700.195 322.886 843.061 371.519C1003.86 426.257 1260.31 379.199 1439.98 54.0895" stroke="#AE8649" stroke-opacity="0.5" stroke-miterlimit="10"/>
<path d="M0 331.583C0 331.583 162.084 415.985 362.722 381.752C534.809 352.396 753.11 102.012 954.093 102.28C1147.36 102.549 1272.94 183.975 1439.98 404.792" stroke="#AE8649" stroke-opacity="0.5" stroke-miterlimit="10"/>
</svg>
