<svg width="1440" height="657" viewBox="0 0 1440 657" fill="none" xmlns="http://www.w3.org/2000/svg">
<path d="M0.00012207 2.62146V1.44031L3.26013 0H5.93286C3.95435 0.875732 1.97571 1.7486 0.00012207 2.62146ZM0.00012207 6.27118V5.09589C3.93994 3.40491 7.88831 1.70831 11.8455 0.00299072H14.5757C9.70276 2.10297 4.84131 4.19427 0.00012207 6.27118ZM0.00012207 9.91815V8.7486C6.94946 5.85931 13.9335 2.94403 20.9548 0H26.548C110.866 7.80945 198.167 7.18726 287.006 0H299.65C204.889 8.30493 111.776 9.32764 22.0811 0.700073C14.6823 3.80255 7.32104 6.87616 0.00012207 9.91815ZM0.00012207 13.5679V12.4013C6.8689 9.65027 13.7693 6.87048 20.7073 4.05896L20.8369 4.00702L20.9751 4.02716C196.039 30.6531 375.215 24.9465 550.607 0H558.308C380.468 25.8683 198.605 32.1251 20.9607 5.12469C13.9392 7.97083 6.95239 10.7823 0.00012207 13.5679ZM0.00012207 17.2206V16.0597C6.50305 13.5593 13.0406 11.033 19.6157 8.47784L19.7568 8.4231L19.9037 8.45197C292.476 62.7236 559.561 47.116 804.059 0H809.902C563.815 47.9774 294.624 64.2358 19.8547 9.54938C13.1962 12.1362 6.58081 14.6915 0.00012207 17.2206ZM0.00012207 20.8704V19.7182C6.13733 17.4741 12.3092 15.2012 18.5214 12.8967L18.6711 12.842L18.8237 12.8794C400.579 104.219 749.581 72.0914 1041.94 0.00299072H1046.53C753.206 72.8635 402.52 105.772 18.7344 13.9742C12.4502 16.3017 6.20935 18.6005 0.00012207 20.8704ZM0.00012207 24.5288V23.3823C5.77734 21.3831 11.5862 19.3638 17.4326 17.3128L17.5853 17.2581L17.7408 17.3013C521.254 155.242 939.776 98.049 1254.08 0H1257.77C942.987 98.726 523.115 156.84 17.62 18.3931C11.713 20.4671 5.8407 22.5095 0.00012207 24.5288ZM0.00012207 28.1902V27.0523C5.41736 25.3009 10.8635 23.5264 16.3413 21.7289L16.4966 21.6769L16.6522 21.7231C654.82 215.874 1123.25 123.122 1431.94 0H1434.86C1126.07 123.681 656.652 217.527 16.5111 22.8149C10.9757 24.6297 5.47205 26.4215 0.00012207 28.1902ZM0.00012207 31.8601V30.728C5.05737 29.2214 10.1405 27.6947 15.2526 26.145L15.4081 26.096L15.5636 26.1478C690.653 249.523 1148.37 177.155 1440 60.1252V61.2975C1148.21 178.298 690.405 250.548 15.3965 27.2367C10.2384 28.798 5.10632 30.3391 0.00012207 31.8601ZM0.00012207 42.893V41.7869C3.98315 41.0004 7.98352 40.2054 12.0039 39.3959L12.1508 39.3642L12.2948 39.4218C766.837 337.164 1192.96 337.138 1440 249.739V250.888C1192.69 338.23 766.38 338.123 12.0587 40.4905C8.02087 41.3058 4.0033 42.1037 0.00012207 42.893ZM0.00012207 46.5889V45.4885C3.62598 44.9383 7.26917 44.3795 10.9268 43.8091L11.068 43.786L11.2032 43.8437C786.367 363.006 1205.16 387.279 1440 312.246V313.384C1204.84 388.342 785.828 363.937 10.9441 44.9066C7.28076 45.477 3.63171 46.0387 0.00012207 46.5889ZM0.00012207 50.2935V49.2045C3.27173 48.8877 6.55493 48.5621 9.85254 48.228L9.98792 48.2136L10.1089 48.2655C802.584 386.884 1215.69 435.244 1440 373.869V375.007C1215.35 436.29 801.985 387.794 9.82373 49.3198C6.53479 49.6539 3.26306 49.9766 0.00012207 50.2935ZM0.00012207 54.0181V52.9321C2.92041 52.8399 5.84937 52.7449 8.78979 52.644L8.91077 52.6412L9.01733 52.6872C815.164 408.587 1224.39 480.77 1440 434.398V435.455C1224 481.758 814.499 409.468 8.70056 53.7358C5.79175 53.8337 2.8916 53.9288 0.00012207 54.0181ZM0.00012207 57.7687V56.6799C2.5719 56.8124 5.14661 56.9391 7.72998 57.0659L7.83081 57.0717L7.91724 57.112C824.08 428.031 1231.13 523.508 1440 493.307V494.33C1230.72 524.458 823.343 428.878 7.5802 58.1433C5.04578 58.0223 2.52002 57.8955 0.00012207 57.7687ZM0.00012207 61.554V60.4536C2.22339 60.7993 4.45251 61.1448 6.68457 61.4905L6.75647 61.5021L6.82568 61.5339C829.483 445.226 1235.89 563.157 1440 550.093V551.058C1235.45 564.07 828.729 446.067 6.45422 62.5565C4.29993 62.2223 2.14856 61.8881 0.00012207 61.554ZM0.00012207 65.3939V64.2618L5.65063 65.9239L5.68811 65.9354L5.72839 65.9528C831.64 460.257 1238.69 599.534 1440 604.284V605.221C1238.23 600.419 830.84 461.072 5.3252 66.9609L0.00012207 65.3939ZM0.00012207 69.3259V68.1248C1.5437 68.8708 3.0874 69.6227 4.6311 70.3745C830.759 473.197 1239.62 632.59 1440 655.56V656.465C1239.15 633.463 829.953 474.007 4.18188 71.3597C2.78796 70.6799 1.39404 70.0029 0.00012207 69.3259ZM0.00012207 38.0939C4.34021 37.0713 8.70056 36.0313 13.084 34.9799L13.2366 34.9425L13.3864 34.9972C744.103 309.475 1179.31 285.26 1440 186.814V187.969C1179.07 286.369 743.717 310.466 13.1703 36.0745C8.75818 37.1346 4.36902 38.1804 0.00012207 39.2087V38.0939ZM1440 124.709C1164.19 232.967 718.301 281.21 14.2877 31.6556C9.5011 32.9663 4.73767 34.2597 0.00012207 35.533V34.4066C4.69739 33.142 9.42053 31.863 14.1667 30.561L14.3195 30.5177L14.4749 30.5724C718.612 280.204 1164.39 231.844 1440 123.549V124.709Z" fill="#404040"/>
</svg>
