<?xml version="1.0" standalone="no"?>
<!DOCTYPE svg PUBLIC "-//W3C//DTD SVG 20010904//EN"
 "http://www.w3.org/TR/2001/REC-SVG-20010904/DTD/svg10.dtd">
<svg version="1.0" xmlns="http://www.w3.org/2000/svg"
 width="684.000000pt" height="491.000000pt" viewBox="0 0 684.000000 491.000000"
 preserveAspectRatio="xMidYMid meet">

<g transform="translate(0.000000,491.000000) scale(0.100000,-0.100000)"
fill="#000000" stroke="none">
<path d="M581 4697 c-192 -192 -348 -483 -407 -757 -27 -126 -25 -336 4 -454
26 -104 91 -247 159 -348 74 -113 156 -204 457 -508 375 -380 531 -562 671
-785 143 -227 225 -472 225 -670 0 -55 -25 -224 -40 -268 -5 -15 -6 -27 -2
-27 14 0 150 145 201 214 28 37 73 114 100 170 177 360 154 789 -68 1243 -115
234 -191 351 -529 807 -514 693 -655 975 -671 1344 l-6 133 -94 -94z"/>
<path d="M2450 2435 l0 -785 30 0 30 0 0 785 0 785 -30 0 -30 0 0 -785z"/>
<path d="M2994 2802 c-28 -10 -63 -26 -78 -35 -42 -28 -84 -94 -92 -143 -17
-114 45 -191 215 -263 139 -59 170 -103 115 -158 -24 -24 -31 -25 -92 -21 -45
4 -89 15 -135 36 l-67 31 -25 -37 c-14 -21 -27 -51 -31 -68 -6 -29 -3 -32 53
-57 77 -34 133 -46 219 -47 176 0 284 87 284 230 0 69 -26 127 -74 166 -20 17
-86 52 -147 78 -122 54 -150 79 -131 122 24 50 98 55 220 12 l64 -22 18 24
c27 36 41 97 25 110 -27 23 -135 51 -210 56 -62 4 -92 1 -131 -14z"/>
<path d="M5018 2807 c-133 -38 -209 -151 -224 -332 -13 -149 31 -292 111 -363
113 -99 326 -96 432 6 77 75 108 179 101 341 -8 173 -61 271 -174 327 -66 32
-173 41 -246 21z m177 -149 c41 -32 57 -81 62 -193 7 -130 -7 -201 -51 -251
-31 -36 -38 -39 -84 -39 -103 0 -144 70 -145 245 -1 124 14 187 55 229 26 27
37 31 83 31 39 0 60 -6 80 -22z"/>
<path d="M5765 2811 c-132 -34 -214 -137 -236 -298 -12 -86 -6 -169 17 -252
26 -91 70 -148 149 -189 44 -24 61 -27 150 -27 90 0 106 3 158 28 72 36 120
97 148 189 18 59 21 88 17 191 -4 107 -8 130 -32 183 -52 114 -143 175 -271
180 -38 2 -83 0 -100 -5z m164 -157 c42 -35 61 -105 61 -224 0 -117 -18 -185
-60 -225 -26 -25 -40 -30 -80 -30 -102 0 -139 67 -140 250 0 132 11 178 55
222 29 29 40 33 83 33 40 0 57 -6 81 -26z"/>
<path d="M3653 2803 c-16 -11 -236 -678 -237 -718 l-1 -30 76 -3 76 -3 23 81
23 80 122 0 121 0 18 -57 c22 -70 47 -99 92 -107 31 -6 114 8 114 20 0 10
-231 729 -236 734 -9 9 -178 11 -191 3z m122 -297 c19 -71 35 -134 35 -142 0
-11 -18 -14 -76 -14 -74 0 -76 1 -70 23 3 12 20 77 37 145 18 67 34 121 36
119 1 -2 19 -61 38 -131z"/>
<path d="M4188 2804 c-5 -4 -8 -175 -8 -381 l0 -373 85 0 85 0 0 141 0 142 45
-6 c25 -2 54 -12 65 -22 10 -10 33 -60 51 -112 41 -125 61 -147 128 -146 77 1
125 41 87 72 -7 6 -28 53 -46 104 -21 57 -44 103 -63 121 -27 27 -27 30 -10
39 111 61 138 243 51 343 -61 69 -92 78 -288 82 -96 2 -178 0 -182 -4z m319
-159 c18 -20 23 -38 23 -79 0 -73 -25 -96 -114 -103 l-66 -6 0 113 0 113 67
-6 c57 -4 71 -9 90 -32z"/>
<path d="M6467 2803 c-4 -3 -7 -124 -7 -268 0 -270 -6 -317 -40 -335 -27 -14
-85 -12 -125 4 -37 16 -41 14 -69 -41 -9 -18 -16 -43 -16 -57 0 -21 8 -27 53
-43 32 -11 80 -18 128 -18 140 1 220 69 239 206 5 35 10 173 10 305 0 211 -2
243 -16 248 -21 8 -149 8 -157 -1z"/>
<path d="M574 2459 c-73 -78 -110 -131 -162 -235 -123 -244 -133 -455 -32
-654 50 -98 112 -173 324 -390 400 -410 521 -591 558 -838 10 -72 3 -167 -19
-247 -8 -30 81 59 128 128 102 148 134 265 127 461 -5 116 -9 143 -42 241 -65
198 -141 328 -379 649 -336 453 -418 615 -436 860 l-6 88 -61 -63z"/>
</g>
</svg>
