<svg width="43" height="31" viewBox="0 0 43 31" fill="none" xmlns="http://www.w3.org/2000/svg">
<path d="M1.39048 30.6734H14.7598C15.4733 30.6734 15.9967 30.1378 15.9967 29.5127L15.9971 20.0483C15.9971 19.3788 15.4262 18.8877 14.7601 18.8877H1.39081C0.677279 18.8877 0.153872 19.4233 0.153872 20.0483V29.4681C0.15354 30.1376 0.724367 30.6732 1.39047 30.6732L1.39048 30.6734ZM13.5228 28.3073H2.6275L2.62716 21.2539H13.5225L13.5228 28.3073Z" fill="#AE8649"/>
<path d="M28.1769 30.6734H41.5463C42.2598 30.6734 42.7832 30.1378 42.7832 29.5127V20.0483C42.7832 19.3788 42.2124 18.8877 41.5463 18.8877H28.1769C27.4634 18.8877 26.94 19.4233 26.94 20.0483V29.4681C26.8922 30.1376 27.463 30.6732 28.1769 30.6732V30.6734ZM40.3092 28.3073H29.414L29.4136 21.2539H40.3089L40.3092 28.3073Z" fill="#AE8649"/>
<path d="M14.7602 30.6737H28.1771C28.8907 30.6737 29.4141 30.1381 29.4141 29.5131V20.0487C29.4141 19.3791 28.8432 18.888 28.1771 18.888L14.8078 18.8877C14.0943 18.8877 13.5709 19.4233 13.5709 20.0483V29.4681C13.5231 30.1379 14.0939 30.6735 14.76 30.6735L14.7602 30.6737ZM26.8925 28.3076H15.9972V21.2542H26.8925V28.3076Z" fill="#AE8649"/>
<path d="M21.4686 21.2537H34.8379C35.5515 21.2537 36.0749 20.7181 36.0749 20.0931L36.0752 10.6733C36.0752 10.0038 35.5044 9.5127 34.8383 9.5127H21.4689C20.7554 9.5127 20.232 10.0483 20.232 10.6733V20.0931C20.232 20.7181 20.7554 21.254 21.4689 21.254L21.4686 21.2537ZM33.6009 18.8873H22.7056L22.7053 11.8339H33.6006L33.6009 18.8873Z" fill="#AE8649"/>
<path d="M8.09882 21.2537H21.4681C22.1817 21.2537 22.7051 20.7181 22.7051 20.0931V10.6733C22.7051 10.0038 22.1342 9.5127 21.4681 9.5127H8.09882C7.38529 9.5127 6.86188 10.0483 6.86188 10.6733V20.0931C6.81409 20.7181 7.38491 21.254 8.09882 21.254V21.2537ZM20.2311 18.8873H9.33584L9.33551 11.8339H20.2308L20.2311 18.8873Z" fill="#AE8649"/>
<path d="M14.7602 11.8338H28.1771C28.8907 11.8338 29.4141 11.2982 29.4141 10.6732V1.25342C29.4141 0.583898 28.8432 0.0927734 28.1771 0.0927734H14.8078C14.0943 0.0927734 13.5709 0.628398 13.5709 1.25342V10.6732C13.5231 11.2982 14.0939 11.8341 14.76 11.8341L14.7602 11.8338ZM26.8925 9.4674H15.9972V2.41399H26.8925V9.4674Z" fill="#AE8649"/>
</svg>
