<svg width="43" height="40" viewBox="0 0 43 40" fill="none" xmlns="http://www.w3.org/2000/svg">
<path fill-rule="evenodd" clip-rule="evenodd" d="M20.1184 3.54067C21.0593 2.92254 22.3117 2.92254 23.2526 3.54067L38.5552 13.5917C39.2857 14.0715 39.7208 14.8555 39.7208 15.6924V33.4543C39.7208 34.8705 38.4973 36.0186 36.988 36.0186H6.38288C4.87361 36.0186 3.65009 34.8705 3.65009 33.4543V15.6924C3.65009 14.8555 4.08524 14.0715 4.81571 13.5917L20.1184 3.54067ZM25.133 1.01968C23.063 -0.339893 20.3079 -0.339893 18.2379 1.01968L2.93533 11.0716C1.32796 12.1273 0.370903 13.8522 0.370903 15.6929V33.4548C0.370903 36.5705 3.06237 39.096 6.38288 39.096H36.988C40.3085 39.096 43 36.5705 43 33.4548V15.6929C43 13.8521 42.0429 12.1272 40.4356 11.0716L25.133 1.01968Z" fill="#AE8649"/>
</svg>
