<svg width="43" height="41" viewBox="0 0 43 41" fill="none" xmlns="http://www.w3.org/2000/svg">
<path d="M32.2901 6.30749C32.5523 6.30749 32.8149 6.24611 33.0116 6.06152C33.405 5.69236 33.405 5.13862 33.0116 4.769L31.1752 3.04592C30.7818 2.67675 30.1917 2.67675 29.7978 3.04592C29.4043 3.41508 29.4043 3.96882 29.7978 4.33845L31.5686 6.0001C31.7653 6.18468 32.028 6.30749 32.2901 6.30749Z" fill="#AE8649"/>
<path d="M9.66381 40.0923C9.92594 40.0923 10.1885 40.0309 10.3853 39.8463L42.5211 9.63088C42.7178 9.4463 42.7832 9.19991 42.7832 8.95394C42.7832 8.70797 42.6519 8.46157 42.5211 8.27699L33.9951 0.276874C33.6017 -0.0922913 33.0116 -0.0922913 32.6176 0.276874L0.416239 30.5538C0.219524 30.7384 0.154107 30.9848 0.154107 31.2308C0.154107 31.4767 0.2854 31.7231 0.416239 31.9077L8.94218 39.9078C9.1389 40.031 9.40103 40.0924 9.66362 40.0924L9.66381 40.0923ZM40.4224 9.01531L9.59823 37.9384L2.51523 31.1694L33.3394 2.24629L40.4224 9.01531Z" fill="#AE8649"/>
<path d="M31.6349 9.93834C31.897 9.93834 32.1596 9.87695 32.3563 9.69237C32.7497 9.3232 32.7497 8.76947 32.3563 8.39984L28.9458 5.19973C28.5524 4.83056 27.9623 4.83056 27.5684 5.19973C27.1749 5.56889 27.1749 6.12263 27.5684 6.49226L30.9133 9.63061C31.1101 9.81519 31.3727 9.93834 31.6349 9.93834Z" fill="#AE8649"/>
<path d="M27.4366 10.8617C27.6987 10.8617 27.9613 10.8003 28.1581 10.6157C28.5515 10.2466 28.5515 9.69282 28.1581 9.32319L26.3217 7.60012C25.9283 7.23095 25.3382 7.23095 24.9442 7.60012C24.5508 7.96928 24.5508 8.52302 24.9442 8.89264L26.7806 10.6157C26.9119 10.8003 27.1745 10.8617 27.4366 10.8617Z" fill="#AE8649"/>
<path d="M26.7813 14.492C27.0435 14.492 27.3061 14.4307 27.5028 14.2461C27.8962 13.8769 27.8962 13.3232 27.5028 12.9536L24.0923 9.75344C23.6989 9.38427 23.1088 9.38427 22.7148 9.75344C22.3214 10.1226 22.3214 10.6763 22.7148 11.046L26.1253 14.2461C26.2566 14.3693 26.5187 14.492 26.7813 14.492Z" fill="#AE8649"/>
<path d="M22.5177 15.4154C22.7798 15.4154 23.0424 15.354 23.2391 15.1694C23.6325 14.8003 23.6325 14.2465 23.2391 13.8769L21.4028 12.1538C21.0093 11.7847 20.4192 11.7847 20.0253 12.1538C19.6319 12.523 19.6319 13.0767 20.0253 13.4464L21.8621 15.169C21.9929 15.3536 22.2555 15.4154 22.5177 15.4154Z" fill="#AE8649"/>
<path d="M21.8624 19.0458C22.1245 19.0458 22.3871 18.9844 22.5838 18.7998C22.9773 18.4306 22.9773 17.8769 22.5838 17.5073L19.1734 14.3071C18.78 13.938 18.1898 13.938 17.7959 14.3071C17.4025 14.6763 17.4025 15.23 17.7959 15.5997L21.2063 18.7998C21.4031 18.9844 21.5998 19.0458 21.8624 19.0458Z" fill="#AE8649"/>
<path d="M17.6651 20.0306C17.9273 20.0306 18.1899 19.9693 18.3866 19.7847C18.78 19.4155 18.78 18.8618 18.3866 18.4921L16.5502 16.7691C16.1568 16.3999 15.5667 16.3999 15.1728 16.7691C14.7793 17.1382 14.7793 17.692 15.1728 18.0616L17.0091 19.7847C17.1404 19.9074 17.4025 20.0306 17.6651 20.0306Z" fill="#AE8649"/>
<path d="M17.0089 23.6615C17.271 23.6615 17.5336 23.6001 17.7303 23.4155C18.1237 23.0463 18.1237 22.4926 17.7303 22.123L14.3199 18.9229C13.9264 18.5537 13.3363 18.5537 12.9424 18.9229C12.549 19.292 12.549 19.8458 12.9424 20.2154L16.3528 23.4155C16.4841 23.5383 16.7467 23.6615 17.0089 23.6615Z" fill="#AE8649"/>
<path d="M12.7462 24.5843C13.0083 24.5843 13.2709 24.523 13.4676 24.3384C13.8611 23.9692 13.8611 23.4155 13.4676 23.0459L11.6313 21.3228C11.2379 20.9536 10.6477 20.9536 10.2538 21.3228C9.86038 21.6919 9.86038 22.2457 10.2538 22.6153L12.0901 24.3384C12.2869 24.523 12.5495 24.5843 12.7462 24.5843Z" fill="#AE8649"/>
<path d="M12.0899 28.2157C12.3521 28.2157 12.6147 28.1543 12.8114 27.9697C13.2048 27.6005 13.2048 27.0468 12.8114 26.6772L9.40092 23.4771C9.00749 23.1079 8.41736 23.1079 8.02344 23.4771C7.63001 23.8462 7.63001 24.4 8.02344 24.7696L11.4339 27.9697C11.6311 28.1539 11.8932 28.2157 12.0899 28.2157Z" fill="#AE8649"/>
<path d="M7.89364 29.1996C8.15578 29.1996 8.41837 29.1382 8.61508 28.9536C9.00851 28.5844 9.00851 28.0307 8.61508 27.6611L6.77875 25.938C6.38532 25.5688 5.79519 25.5688 5.40127 25.938C5.00784 26.3072 5.00784 26.8609 5.40127 27.2305L7.2376 28.9536C7.36889 29.0768 7.63151 29.1996 7.89364 29.1996Z" fill="#AE8649"/>
<path d="M39.045 39.1073C39.3071 39.1073 39.5697 39.0459 39.701 38.8613C39.9631 38.6154 40.0944 38.2458 39.9631 37.9384L36.9461 28.8923C36.8806 28.7691 36.8148 28.6463 36.6839 28.5231L29.2729 21.3228C28.8795 20.9536 28.2893 20.9536 27.8954 21.3228C27.502 21.6919 27.502 22.2457 27.8954 22.6153L35.1756 29.6307L37.5366 36.7693L29.9948 34.3693L22.9118 27.5385C22.5184 27.1693 21.9282 27.1693 21.5343 27.5385C21.1409 27.9077 21.1409 28.4614 21.5343 28.831L28.7487 35.846C28.88 35.9692 29.0108 36.0306 29.1421 36.0919L38.7175 39.1074H39.0451L39.045 39.1073Z" fill="#AE8649"/>
<path d="M13.1399 20.4613C13.402 20.4613 13.6646 20.3999 13.7959 20.2153C14.1893 19.8461 14.1893 19.2924 13.7959 18.9228L3.04026 8.58451L8.2211 3.84594L18.6487 13.8151C19.0422 14.1842 19.6323 14.1842 20.0262 13.8151C20.4196 13.4459 20.4196 12.8922 20.0262 12.5225L8.94252 1.87648C8.54909 1.50732 7.95896 1.50732 7.56504 1.87648L1.00671 7.90715C0.809991 8.09173 0.744574 8.33813 0.678697 8.58409C0.678697 8.83006 0.744113 9.07646 0.940829 9.26104L12.4184 20.2153C12.6151 20.3999 12.8773 20.4613 13.1399 20.4613Z" fill="#AE8649"/>
<path d="M5.26971 12.4614C5.53185 12.4614 5.79443 12.4 5.99115 12.2155L12.1561 6.43073C12.5495 6.06157 12.5495 5.50783 12.1561 5.1382C11.7627 4.76904 11.1725 4.76904 10.7786 5.1382L4.61367 10.9229C4.22024 11.2921 4.22024 11.8458 4.61367 12.2155C4.74496 12.4 5.00712 12.4614 5.26971 12.4614Z" fill="#AE8649"/>
<path d="M31.896 36.2771C32.1581 36.2771 32.4207 36.2157 32.6174 36.0312L36.6834 32.2159C37.0769 31.8467 37.0769 31.293 36.6834 30.9234C36.29 30.5542 35.6999 30.5542 35.306 30.9234L31.2399 34.7386C30.8465 35.1078 30.8465 35.6615 31.2399 36.0312C31.3712 36.2153 31.6334 36.2771 31.896 36.2771Z" fill="#AE8649"/>
</svg>
