<svg width="43" height="40" viewBox="0 0 43 40" fill="none" xmlns="http://www.w3.org/2000/svg">
<path fill-rule="evenodd" clip-rule="evenodd" d="M19.9865 3.54067C20.9275 2.92254 22.1798 2.92254 23.1208 3.54067L38.4234 13.5917C39.1539 14.0715 39.589 14.8555 39.589 15.6924V33.4543C39.589 34.8705 38.3655 36.0186 36.8562 36.0186H6.25104C4.74177 36.0186 3.51826 34.8705 3.51826 33.4543V15.6924C3.51826 14.8555 3.95341 14.0715 4.68387 13.5917L19.9865 3.54067ZM25.0012 1.01968C22.9312 -0.339893 20.1761 -0.339893 18.1061 1.01968L2.80349 11.0716C1.19612 12.1273 0.239067 13.8522 0.239067 15.6929V33.4548C0.239067 36.5705 2.93053 39.096 6.25104 39.096H36.8562C40.1767 39.096 42.8682 36.5705 42.8682 33.4548V15.6929C42.8682 13.8521 41.9111 12.1272 40.3037 11.0716L25.0012 1.01968Z" fill="#AE8649"/>
<path fill-rule="evenodd" clip-rule="evenodd" d="M14.9955 31.9153H28.1123V28.8384H14.9955V31.9153Z" fill="#AE8649"/>
</svg>
