<svg width="24" height="14" viewBox="0 0 24 14" fill="none" xmlns="http://www.w3.org/2000/svg">
<path d="M1.11556 0.000303453C1.40301 0.00709934 1.67612 0.127207 1.8754 0.334463L12.0024 10.4614L22.1293 0.334463C22.2309 0.230072 22.3523 0.147093 22.4865 0.0904302C22.6206 0.0337671 22.7648 0.00456875 22.9104 0.00456026C23.1272 0.00461724 23.3391 0.0693247 23.5189 0.19041C23.6987 0.311496 23.8383 0.483457 23.9199 0.684309C24.0015 0.885162 24.0213 1.10578 23.9768 1.31796C23.9324 1.53013 23.8256 1.72423 23.6703 1.87543L12.7728 12.7729C12.5685 12.9772 12.2913 13.0919 12.0024 13.0919C11.7134 13.0919 11.4362 12.9772 11.2319 12.7729L0.334439 1.87543C0.176177 1.72324 0.0675727 1.52681 0.0228496 1.31185C-0.0218735 1.09689 -0.000629952 0.873438 0.0838001 0.670759C0.16823 0.468081 0.31191 0.29563 0.496014 0.175996C0.680119 0.0563615 0.896064 -0.00487637 1.11556 0.000303453Z" fill="#AE8649"/>
</svg>
