<svg width="40" height="41" viewBox="0 0 40 41" fill="none" xmlns="http://www.w3.org/2000/svg">
<path d="M0 20.6133C0 9.56935 8.95607 0.613281 20 0.613281C31.0439 0.613281 40 9.56935 40 20.6133C40 31.6572 31.0439 40.6133 20 40.6133C8.95607 40.6133 0 31.6572 0 20.6133Z" fill="#AE8649"/>
<path d="M29.0908 14.6458C29.0908 13.5317 28.7184 12.4015 27.9819 11.2553C27.2453 10.1092 26.1612 9.16336 24.7461 8.40993C23.3309 7.6565 21.6757 7.27979 19.7806 7.27979C18.0261 7.27979 16.4703 7.59238 15.1296 8.22558C13.7807 8.85077 12.7462 9.7084 12.0097 10.7905C11.2731 11.8725 10.909 13.0427 10.909 14.3091C10.909 15.311 11.1159 16.1847 11.538 16.9301C11.96 17.6835 12.4566 18.3328 13.0276 18.8778C13.6069 19.4229 14.6331 20.3446 16.131 21.6351C16.5448 21.9957 16.8758 22.3164 17.1241 22.5969C17.3724 22.8694 17.5544 23.1259 17.6786 23.3503C17.8027 23.5828 17.8937 23.8072 17.9599 24.0396C18.0261 24.2721 18.1255 24.6728 18.2579 25.2499C18.4896 26.4682 19.2096 27.0854 20.4178 27.0854C21.0468 27.0854 21.5764 26.885 22.0068 26.4843C22.4371 26.0835 22.6523 25.4904 22.6523 24.7049C22.6523 23.719 22.495 22.8614 22.1806 22.14C21.8661 21.4186 21.444 20.7854 20.9227 20.2404C20.4013 19.6954 19.6978 19.0461 18.8123 18.2927C18.0344 17.6355 17.4799 17.1385 17.1324 16.8019C16.7848 16.4652 16.4951 16.0965 16.2634 15.6797C16.0234 15.271 15.9076 14.8221 15.9076 14.3412C15.9076 13.4034 16.2717 12.6099 16.9917 11.9607C17.7117 11.3114 18.6468 10.9908 19.7806 10.9908C21.113 10.9908 22.0978 11.3195 22.7268 11.9687C23.3557 12.6179 23.8937 13.5798 24.324 14.8462C24.7378 16.1767 25.5157 16.8339 26.666 16.8339C27.3446 16.8339 27.9157 16.6015 28.3874 16.1366C28.8508 15.6878 29.0908 15.1908 29.0908 14.6458ZM20.2109 33.9464C20.9475 33.9464 21.593 33.714 22.1475 33.2491C22.7019 32.7842 22.975 32.135 22.975 31.3014C22.975 30.564 22.7102 29.9388 22.1723 29.4339C21.6426 28.9289 20.9806 28.6804 20.2109 28.6804C19.4496 28.6804 18.8041 28.9369 18.2827 29.4339C17.7613 29.9388 17.5048 30.564 17.5048 31.3014C17.5048 32.127 17.7779 32.7682 18.3241 33.2411C18.8703 33.714 19.4992 33.9464 20.2109 33.9464Z" fill="#272727"/>
</svg>
